<?xml version="1.0" standalone="no"?><!DOCTYPE svg PUBLIC "-//W3C//DTD SVG 1.1//EN" "http://www.w3.org/Graphics/SVG/1.1/DTD/svg11.dtd"><svg t="1577935307854" class="icon" viewBox="0 0 1024 1024" version="1.1" xmlns="http://www.w3.org/2000/svg" p-id="8625" xmlns:xlink="http://www.w3.org/1999/xlink" width="64" height="64"><defs><style type="text/css"></style></defs><path d="M6.208 105.984c109.568 1.184 219.104 2.464 328.672 3.424 45.92 0.352 91.776 0.032 140.288 0.032l4.384-90.88h68.96v89.472h470.816v137.28l-59.136 4.448v538.048H610.496c-0.96 2.816-1.984 5.696-3.008 8.512 70.336 52.032 140.736 104.064 214.272 158.368l-36.256 50.72c-85.632-62.976-169.056-123.168-250.912-185.344-20.672-15.712-34.272-15.2-54.496 0.16-81.888 62.016-165.088 122.368-250.048 184.96l-37.376-50.048 223.168-164.864H68.832V248.864H6.208V105.984z m120.96 623.296h771.456V250.752H127.168V729.28z" p-id="8626"></path><path d="M463.744 469.152h-121.632v120.448c-67.328 3.456-120.8-46.688-124.16-112.448-3.616-70.944 47.328-127.904 117.984-131.904 66.944-3.744 122.08 47.36 127.808 123.904z" p-id="8627"></path><path d="M386.752 625.952v-118.912h117.28c5.824 64.512-47.392 118.752-117.28 118.912zM605.984 383.04h153.952v38.272h-153.952V383.04zM605.216 504.672v-36.896h154.496c0.608 11.328 1.184 22.528 2.016 36.896h-156.512zM605.184 589.344v-36.736h154.56v36.736h-154.56z" p-id="8628"></path></svg>